<?xml version="1.0" standalone="no"?>
<!DOCTYPE svg PUBLIC "-//W3C//DTD SVG 20010904//EN"
 "http://www.w3.org/TR/2001/REC-SVG-20010904/DTD/svg10.dtd">
<svg version="1.0" xmlns="http://www.w3.org/2000/svg"
 width="1024.000000pt" height="1024.000000pt" viewBox="0 0 1024.000000 1024.000000"
 preserveAspectRatio="xMidYMid meet">
<metadata>
Created by potrace 1.16, written by Peter Selinger 2001-2019
</metadata>
<g transform="translate(0.000000,1024.000000) scale(0.100000,-0.100000)"
fill="#000000" stroke="none">
<path d="M5050 7530 c-111 -11 -315 -39 -336 -47 -12 -4 -14 -48 -14 -250 0
-228 1 -244 18 -239 48 15 197 46 272 57 47 7 174 13 285 12 289 0 524 -41
765 -131 129 -49 280 -118 280 -129 0 -13 -10 -24 -115 -123 -55 -52 -235
-225 -400 -384 -283 -274 -386 -374 -750 -727 -82 -80 -249 -241 -370 -359
l-220 -213 -3 1213 -2 1212 -25 -6 c-168 -42 -488 -193 -675 -318 -405 -270
-736 -651 -941 -1083 -98 -208 -185 -490 -226 -740 -26 -158 -26 -639 1 -805
145 -921 811 -1754 1671 -2093 602 -236 1230 -256 1825 -57 428 143 738 336
1065 664 239 239 377 431 515 711 120 246 196 487 242 765 18 114 22 176 22
405 1 276 -4 334 -45 545 -23 117 -82 318 -124 425 -56 144 -166 354 -253 485
-456 683 -1091 1084 -1891 1195 -140 19 -442 27 -571 15z m-1250 -2666 l0
-1656 -88 88 c-370 375 -597 841 -652 1339 -5 50 -10 158 -10 242 0 477 150
935 428 1306 73 97 296 337 314 337 4 0 8 -745 8 -1656z m3100 1469 c81 -92
208 -269 269 -376 382 -664 382 -1500 1 -2166 -77 -133 -184 -287 -263 -375
l-52 -58 -466 468 c-651 655 -1030 1041 -1047 1065 -13 19 -10 24 37 74 28 29
178 176 333 326 156 151 360 348 453 439 165 160 528 508 630 603 28 26 53 47
57 47 3 0 25 -21 48 -47z m-1950 -1970 c305 -312 667 -679 1038 -1054 188
-190 342 -351 342 -358 0 -15 -211 -118 -330 -161 -210 -77 -438 -120 -671
-127 -273 -9 -528 26 -762 104 l-108 36 3 747 3 748 135 131 c74 71 140 130
146 131 6 0 98 -89 204 -197z"/>
</g>
</svg>
